<?xml version="1.0" encoding="UTF-8" standalone="no"?>
<svg
   xmlns:dc="http://purl.org/dc/elements/1.1/"
   xmlns:cc="http://creativecommons.org/ns#"
   xmlns:rdf="http://www.w3.org/1999/02/22-rdf-syntax-ns#"
   xmlns:svg="http://www.w3.org/2000/svg"
   xmlns="http://www.w3.org/2000/svg"
   xmlns:sodipodi="http://sodipodi.sourceforge.net/DTD/sodipodi-0.dtd"
   xmlns:inkscape="http://www.inkscape.org/namespaces/inkscape"
   inkscape:version="1.0 (4035a4fb49, 2020-05-01)"
   sodipodi:docname="translate-galician.svg"
   id="svg12"
   viewBox="0 0 24 24"
   version="1.1"
   fill="none"
   height="24px"
   width="24px">
  <metadata
     id="metadata18">
    <rdf:RDF>
      <cc:Work
         rdf:about="">
        <dc:format>image/svg+xml</dc:format>
        <dc:type
           rdf:resource="http://purl.org/dc/dcmitype/StillImage" />
        <dc:title></dc:title>
      </cc:Work>
    </rdf:RDF>
  </metadata>
  <defs
     id="defs16" />
  <sodipodi:namedview
     inkscape:current-layer="svg12"
     inkscape:window-maximized="1"
     inkscape:window-y="-8"
     inkscape:window-x="-8"
     inkscape:cy="13.84788"
     inkscape:cx="4.8162373"
     inkscape:zoom="25.043365"
     showgrid="false"
     id="namedview14"
     inkscape:window-height="1017"
     inkscape:window-width="1920"
     inkscape:pageshadow="2"
     inkscape:pageopacity="0"
     guidetolerance="10"
     gridtolerance="10"
     objecttolerance="10"
     borderopacity="1"
     bordercolor="#666666"
     pagecolor="#ffffff" />
  <g
     id="g8"
     transform="matrix(2.4999999,0,0,2.4999989,2.0000001,2.0000256)">
    <path
       id="path4"
       fill="#ffffff"
       d="M 7.9629,0.5 A 7.5001,7.5001 0 0 0 0.5,8 7.5001,7.5001 0 0 0 8,15.5 7.5001,7.5001 0 0 0 15.5,8 7.5001,7.5001 0 0 0 8,0.5 7.5001,7.5001 0 0 0 7.962891,0.5 Z"
       transform="scale(0.5)" />
    <path
       id="path6"
       fill-rule="evenodd"
       fill="#0099cc"
       d="M 4.0371,1.6328 A 7.5001,7.5001 0 0 0 1.6328,4.0371 l 10.33,10.33 a 7.5001,7.5001 0 0 0 2.4043,-2.4043 z"
       transform="scale(0.5)" />
  </g>
  <ellipse
     style="stroke-width:2;stroke-miterlimit:4;stroke-dasharray:none"
     ry="9.3749962"
     rx="9.375"
     id="circle10"
     stroke-width="1.25"
     stroke="#64ba54"
     fill="none"
     cy="11.999996"
     cx="11.999999" />
</svg>
