<?xml version="1.0" encoding="UTF-8" standalone="no"?>
<svg
   xmlns:dc="http://purl.org/dc/elements/1.1/"
   xmlns:cc="http://creativecommons.org/ns#"
   xmlns:rdf="http://www.w3.org/1999/02/22-rdf-syntax-ns#"
   xmlns:svg="http://www.w3.org/2000/svg"
   xmlns="http://www.w3.org/2000/svg"
   xmlns:sodipodi="http://sodipodi.sourceforge.net/DTD/sodipodi-0.dtd"
   xmlns:inkscape="http://www.inkscape.org/namespaces/inkscape"
   inkscape:version="1.0 (4035a4fb49, 2020-05-01)"
   sodipodi:docname="translate-english.svg"
   id="svg26"
   viewBox="0 0 24 24"
   version="1.1"
   fill="none"
   height="24px"
   width="24px">
  <metadata
     id="metadata32">
    <rdf:RDF>
      <cc:Work
         rdf:about="">
        <dc:format>image/svg+xml</dc:format>
        <dc:type
           rdf:resource="http://purl.org/dc/dcmitype/StillImage" />
        <dc:title></dc:title>
      </cc:Work>
    </rdf:RDF>
  </metadata>
  <defs
     id="defs30" />
  <sodipodi:namedview
     inkscape:current-layer="svg26"
     inkscape:window-maximized="1"
     inkscape:window-y="-8"
     inkscape:window-x="-8"
     inkscape:cy="20.31586"
     inkscape:cx="15.407661"
     inkscape:zoom="8.8541667"
     showgrid="false"
     id="namedview28"
     inkscape:window-height="1017"
     inkscape:window-width="1920"
     inkscape:pageshadow="2"
     inkscape:pageopacity="0"
     guidetolerance="10"
     gridtolerance="10"
     objecttolerance="10"
     borderopacity="1"
     bordercolor="#666666"
     pagecolor="#ffffff" />
  <g
     id="g8"
     stroke-width="0.026128"
     transform="matrix(2.5,0,0,2.5000067,2.0000055,2.0000292)">
    <path
       id="path4"
       fill="#c60b1e"
       d="M 7.9629,0.5 A 7.5,7.5 0 0 0 0.5,8 7.5,7.5 0 0 0 8,15.5 7.5,7.5 0 0 0 15.5,8 7.5,7.5 0 0 0 8,0.5 7.5,7.5 0 0 0 7.962891,0.5 Z"
       transform="scale(0.5)" />
    <path
       id="path6"
       fill="#ffc400"
       d="M 1.6562,4 A 7.5,7.5 0 0 0 0.5,8 7.5,7.5 0 0 0 1.6543,12 h 12.689 A 7.5,7.5 0 0 0 15.4995,8 7.5,7.5 0 0 0 14.3452,4 Z"
       transform="scale(0.5)" />
  </g>
  <g
     id="g22"
     transform="matrix(2.5,0,0,2.5000067,2.0000055,2.0000292)">
    <path
       id="path10"
       stroke-width="0.37691"
       fill="#00247d"
       d="M 7.9629,0.5 A 7.5,7.5 0 0 0 0.5,8 7.5,7.5 0 0 0 8,15.5 7.5,7.5 0 0 0 15.5,8 7.5,7.5 0 0 0 8,0.5 7.5,7.5 0 0 0 7.962891,0.5 Z"
       transform="scale(0.5)" />
    <path
       id="path12"
       stroke-width="0.37691"
       fill="#ffffff"
       d="M 3.668,1.877 A 7.5,7.5 0 0 0 1.875,3.6719 L 6.209,8 1.875,12.3281 a 7.5,7.5 0 0 0 1.793,1.793 L 8,9.7988 12.332,14.123 a 7.5,7.5 0 0 0 1.793,-1.7949 L 9.791,8 14.125,3.6719 A 7.5,7.5 0 0 0 12.332,1.8789 L 8,6.2012 Z"
       transform="scale(0.5)" />
    <g
       id="g20">
      <path
         id="path14"
         fill="#cf142b"
         d="M 12.652,2.1172 7.3981,7.3848 2.6989,2.6953 A 7.5,7.5 0 0 0 2.12663,3.33592 l 5.2715,5.2578 -4.7031,4.707 a 7.5,7.5 0 0 0 0.62695,0.5625 l 5.2637,-5.2891 4.7188,4.7266 a 7.5,7.5 0 0 0 0.56445,-0.63086 l -5.2832,-5.2695 4.7148,-4.7051 A 7.5,7.5 0 0 0 12.65209,2.11714 Z"
         transform="scale(0.5)" />
      <path
         id="path16"
         style="text-indent:0;text-decoration:none;text-decoration-line:none;text-transform:none"
         fill="#ffffff"
         color="#000000"
         d="M 7.9629,0.5 A 7.5,7.5 0 0 0 6.666,0.61914 v 4.7168 H 0.9902 a 7.5,7.5 0 0 0 -0.49023,2.6641 7.5,7.5 0 0 0 0.49023,2.6641 H 6.666 v 4.7148 A 7.5,7.5 0 0 0 8,15.50003 7.5,7.5 0 0 0 9.334,15.38089 v -4.7168 h 5.6758 A 7.5,7.5 0 0 0 15.50003,7.99999 7.5,7.5 0 0 0 15.0098,5.33589 H 9.334 V 0.62109 A 7.5,7.5 0 0 0 8,0.5 7.5,7.5 0 0 0 7.962891,0.5 Z"
         transform="scale(0.5)" />
      <path
         id="path18"
         style="text-indent:0;text-decoration:none;text-decoration-line:none;text-transform:none"
         fill="#cf142b"
         color="#000000"
         d="M 7.9629,0.5 A 7.5,7.5 0 0 0 7.19923,0.542969 v 5.8594 h -6.5273 a 7.5,7.5 0 0 0 -0.17188,1.5977 7.5,7.5 0 0 0 0.17188,1.5977 h 6.5273 v 5.8594 a 7.5,7.5 0 0 0 0.80078,0.04297 7.5,7.5 0 0 0 0.80078,-0.04297 v -5.8594 h 6.5273 a 7.5,7.5 0 0 0 0.17188,-1.5977 7.5,7.5 0 0 0 -0.17188,-1.5977 h -6.5273 v -5.8594 A 7.5,7.5 0 0 0 8.00001,0.5 7.5,7.5 0 0 0 7.9629,0.5 Z"
         transform="scale(0.5)" />
    </g>
  </g>
  <ellipse
     style="stroke-width:2;stroke-miterlimit:4;stroke-dasharray:none"
     ry="9.3750257"
     rx="9.375001"
     id="circle24"
     stroke-width="1.25001"
     stroke="#64ba54"
     fill="none"
     cy="12.000031"
     cx="12.000006" />
</svg>
